<?xml version="1.0" encoding="UTF-8" standalone="no"?><!DOCTYPE svg PUBLIC "-//W3C//DTD SVG 1.1//EN" "http://www.w3.org/Graphics/SVG/1.1/DTD/svg11.dtd"><svg width="100%" height="100%" viewBox="0 0 146 146" version="1.1" xmlns="http://www.w3.org/2000/svg" xmlns:xlink="http://www.w3.org/1999/xlink" xml:space="preserve" xmlns:serif="http://www.serif.com/" style="fill-rule:evenodd;clip-rule:evenodd;stroke-linejoin:round;stroke-miterlimit:2;"><path d="M71.536,145.533l56.278,0c9.101,0 16.578,-6.817 17.625,-15.636l0.126,-59.082c-1.035,-39.286 -33.206,-70.815 -72.741,-70.815c-40.188,-0 -72.767,32.579 -72.767,72.767c0,39.758 31.885,72.079 71.479,72.766Z" style="fill:#fff;fill-rule:nonzero;"/><path d="M73.016,24.783c-22.904,0 -42.059,16.055 -46.824,37.525c4.562,1.279 7.907,5.469 7.907,10.439c0,4.971 -3.345,9.16 -7.907,10.439c4.765,21.47 23.92,37.525 46.824,37.525c8.338,-0 16.179,-2.127 23.01,-5.869l-0,5.544l24.954,0l-0,-45.651c0.023,-0.607 -0,-1.375 -0,-1.988c-0,-26.49 -21.474,-47.964 -47.964,-47.964Zm-22.975,47.964c-0,-12.689 10.286,-22.975 22.975,-22.975c12.689,-0 22.976,10.286 22.976,22.975c-0,12.689 -10.287,22.975 -22.976,22.975c-12.689,0.001 -22.975,-10.286 -22.975,-22.975Z" style="fill:#8b44ac;"/><path d="M30.702,72.715c-0,4.24 -3.437,7.676 -7.676,7.676c-4.239,-0 -7.675,-3.436 -7.675,-7.676c-0,-4.239 3.436,-7.675 7.675,-7.675c4.239,0 7.676,3.436 7.676,7.675Z" style="fill:#8b44ac;fill-rule:nonzero;"/></svg>